<mxfile host="app.diagrams.net" modified="2024-07-19T19:30:38.193Z" agent="Mozilla/5.0 (Macintosh; Intel Mac OS X 10_15_7) AppleWebKit/537.36 (KHTML, like Gecko) Chrome/126.0.0.0 Safari/537.36" version="24.7.0" etag="Js_d3twsFdMjDsIOw9xX" type="github">
  <diagram name="Page-1" id="QYnF0VAGigdxiVe0kUOT">
    <mxGraphModel>
      <root>
        <mxCell id="0" />
        <mxCell id="1" parent="0" />
      </root>
    </mxGraphModel>
  </diagram>
</mxfile>
